<svg xmlns="http://www.w3.org/2000/svg" viewBox="0 0 492 492">
  <path fill="#7eb928" d="M131.56,246.04c-4.5-17.93-5.71-36.57-3.61-55.44,6.86-45.29,31.23-84.55,68.62-110.41,40.61-28.08,93.05-37.96,143.89-27.11,72.51,18.39,126.93,73.37,145.41,147.03,8.99,35.82,8.63,74.2-1.03,110.99-18.8,63.11-61.61,113.79-120.52,142.58-61.87,30.24-135.23,32.79-201.24,7C85.68,428.32,29.32,362.24,8.55,279.43-14.82,186.31,10.38,90.32,75.94,22.68c6.55-6.7,14.66-15,23.64-20.64,1.33-.84,5.61-2.92,8.23-1.63,2.16,1.06,3.44,4.19,3.81,5.69v.02c.98,3.91-1.9,9-9.21,17.08-33.17,38.7-54.35,78.65-64.84,122.22-8.73,38.48-8.3,78.84,1.22,116.78,22.59,90.04,91.38,155.43,179.54,170.65,55.25,8.06,111.18-6.16,153.54-39,38.66-29.96,62.82-73.14,68.04-121.58,1.38-18.01-.14-35.86-4.48-53.18-16.88-67.3-71.73-112.03-136.5-111.33-34.72,1.64-68.4,18.76-88.05,44.72-11.64,15.37-23.87,40.73-16.1,74.36,5.69,20.9,20.84,39.52,38.67,47.6,13.4,6.08,27.3,5.99,40.17-.25,9.74-5.34,19.4-19.05,17.1-28.24-.68-2.7-2.28-5.01-4.63-6.67-2.57-1.45-4.87-1.17-8.06-.8-5.75.68-14.46,1.7-21.99-9.28-1.24-2.13-2.28-4.66-2.94-7.27-4.27-17.03,8.92-33.03,24.16-40.03,15.07-5.96,30.8-5.23,45.29,2.21,17.82,9.15,32.24,28.17,37.62,49.64.44,1.77.83,3.48,1.21,5.69,3.57,26.96-4.45,53.06-22.65,73.29-21.24,23.64-54.26,37.22-88.31,36.35-57.43-3.96-104.16-44.42-118.87-103.06"/>
</svg>
